<?xml version="1.0" encoding="UTF-8"?>
<svg id="Camada_1" data-name="Camada 1" xmlns="http://www.w3.org/2000/svg" viewBox="0 0 1080 1080">
  <defs>
    <style>
      .cls-1 {
        stroke-width: 0px;
      }

      .cls-2 {
        font-family: Gotham-Black, 'Gotham Black';
        font-size: 124.33px;
        font-weight: 800;
      }
    </style>
  </defs>
  <g>
    <path class="cls-1" d="m909.24,447.92s-.05-.02-.08-.02c.07.02.11.04.08.02Z"/>
    <path class="cls-1" d="m909.16,447.9c-.06,0-.11,0-.19-.02.06.01.13.02.19.02Z"/>
    <path class="cls-1" d="m622.1,383.51c0-5.99,2.2-11.73,7.36-13.81,1.34-.56,2.87-.94,5.26-.94,5.58,0,9.6.55,12.91,1.55,6.41-5.65,14.84-9.07,24.05-9.07,18.77,0,34.23,14.18,36.24,32.43,21.34,6.01,77.9,22.89,91.38,44.63,1.13.42,9.73,5.28,17.22,9.72,10.9-15.48,19.96-8.75,53.87,19.86,12.37,10.43,17.75,5.57,21.56,14.92,11.46,2.55,11.95,13.53,17.76,13.53,1.14,0,2.26-.11,3.37-.11,5.94,0,10.28,6.45,15.41,6.45,6.07,0,28.64-11.07,28.64-15.99,0-.27-.01-.52-.01-.77,0-.11.27-.99.81-2.4-6.83-2.6-16.56-6.71-31.62-13.73-.15-.07-.29-.14-.42-.2-5.8,1.7-12.25,3.21-16.62,1.16-1.86-.87-3.81-1.68-5.71-2.57-2.39-1.12-8.35-2.74-7.27-5.08.99-2.08,4.99-1.02,7.81-.54-.81-1.72-5.6-5.26-7.2-4.59-10.1,4.19-8.58,7.86-13.21,5.89-.07-1.13-.04-2.37.71-3.92.79-1.74.75.08,1.95-2.5.5-1.07,3.75-3.41,4.72-4.06,9.73-6.3,17.92-5.48,18.19-5.46,3.19.53,6.08.77,8.03,1.65,0,0-.26.36,10.88,3.38,4.04-.19,10.16,1.54,14.2,1.74,6.61.32,20.68,1.88,30.76,3.89,6.13-6.5,14.04-11.59,23.74-11.59,6.51,0,12.2,5.83,16.18,8.87,1.92-1.5,3.52-3.21,3.52-4.97,0-.35-.93-3.11-.93-5.29,0-3.25,3.36-7.56,6.77-10.56,1.96-7.52,5.19-11.73,8.52-14.54,1.05,0,2.1-.01,3.14-.01,25.23,0,46.95,3.22,46.95,34.09,0,5.62-.75,7.5-2.95,10.46,0,0-13.06,15.69-19.58,23.57,0,.02.03.07.04.09,0,0-.19,3.09-.39,7.61,17.58,57.19,2.76,49.73,2.76,79.53,0,7.24,1.07,19.16,1.33,29.72-.87-.11-1.89-.19-3.13-.24,1.17,10.51-2.48,13.42-2.48,20.1,0,3.39,1.11,8.33,1.11,12.73,0,8.46-9.11,35.97-13.17,45.85-1.76,4.29-3.82,10.88-5.97,14.97-2.26,13.01-2.42,13.24-2.42,13.24,0,2.52-1.06,7.48-1.06,9.82,0,.81-1.25,15.12-13.09,17.41-1.31.26-2.71.78-4.06.78-3.24,0-4.3.46-6.47.46-1.98,0-3.26-.53-4.42-1.17.21-5.75,3.29-2.4,12.5-10.85,1.46-1.33.12-8.01-1.26-9.68-.86,3.17-1.7,7.83-4.35,7.83-2.94,0-1.74-6.96-1.74-9.97,0-2.41.1-4.8.1-7.17,0-5.52,4.66-11.46,9.23-16.65,0-.17.02-.34.02-.51,0-58.41,4.23-51.34,4.23-71.81,0-4.83.19-8.07.17-10.66-1.11.14-2.32.2-3.65.2-1.84,0-3.72-.2-5.51-.66,5.33-9.6.45-12.53.45-16.05,0-.39.79-3.39.79-5.19,0-2.84-1.57-8.13-3.13-11.98.01.54.03,1.14.03,1.76,0,1.68-2.45,1.71-3.7,2.33-.27-1.46-.57-3-.86-4.58-13.84,1.37-18.35,6.37-23.82,7.37-26.45,4.92-31.57,20.84-58.5,20.84-.79,0-1.6,0-2.4,0-11.82,0-12.7,6.29-18.72,6.29-.92,0-1.85-.08-2.75-.08-2.66,0-17.36,6.93-19.85,8.09-14.3,6.71-17.52,3.86-26.53,8.23-21.38,10.3-16.29,20.21-35.19,20.21-3.32,0-5.52-8.7-5.52-9.53,0-.97.07-1.93.1-2.85-3.53,1.03-19.62,5.6-34.5,5.6-9.4,0-16.55-3.78-20.37-6.5-3.8-8.9,2.23-18.3,13.62-33.93.56-.31,1.09-.58,1.62-.87-7.19-5.23-14.92-13.13-8.35-20.61,3.85-4.36,10.58-4.24,14.33-4.24,7.79,0,11.07,1.63,18,6.11.53-.83,1.25-1.44,2.21-1.88,34.31-15.13,20.58-20.76,36.08-20.76,1.21,0,2.24-.21,3.11-.52.36-1.43.62-2.8.62-3.77,0-35.2-49.47-37.21-49.47-59.2,0-4.1.44-6.57,1.32-8.71-2.67-4.02-3.32-5.15-14.07-11.18l.84-1.68c-.16-.05-.34-.1-.49-.13l-.77,1.5c-.33-.27-.89-1.06-1.44-2.1-33.39-9.56-51.09-42.74-76.04-56-6.25,11.11-18.13,18.63-31.78,18.63-18.82,0-34.31-14.27-36.26-32.56-9.34-3.28-13.32-14.57-13.32-18.12Z"/>
  </g>
  <text class="cls-2" transform="translate(0 445.25)"><tspan x="0" y="0">ESPAÇO</tspan></text>
  <text class="cls-2" transform="translate(79.2 567.96)"><tspan x="0" y="0">CULTURAL</tspan></text>
  <text class="cls-2" transform="translate(148.2 696.52)"><tspan x="0" y="0">VITÓRIA</tspan></text>
</svg>